<svg width="160" height="158" version="1.1" xmlns="http://www.w3.org/2000/svg"><path fill="rgb(251,251,250)" stroke="rgb(251,251,250)" stroke-width="1" opacity="1" d="M 40.5 32 L 42.5 33 L 44.5 32 L 45.5 34 L 43.5 33 L 41.5 34 L 40.5 32 Z "></path><path fill="rgb(251,251,250)" stroke="rgb(251,251,250)" stroke-width="1" opacity="1" d="M 51.5 32 L 48.5 36 Q 46.3 35.3 47 37.5 L 44 35.5 L 45.5 36 L 51.5 32 Z "></path><path fill="rgb(251,251,250)" stroke="rgb(251,251,250)" stroke-width="1" opacity="1" d="M 97.5 32 L 101 33.5 L 99.5 38 L 98 35.5 L 100 35 L 99.5 33 L 96 33.5 L 97.5 32 Z "></path><path fill="rgb(251,251,250)" stroke="rgb(251,251,250)" stroke-width="1" opacity="1" d="M 104.5 32 L 107 33.5 L 105.5 33 L 104.5 32 Z "></path><path fill="rgb(251,251,250)" stroke="rgb(251,251,250)" stroke-width="1" opacity="1" d="M 108.5 32 L 111 33.5 L 109.5 36 L 111.5 35 L 110.5 37 L 108 35.5 L 109.5 33 L 108.5 32 Z "></path><path fill="rgb(251,251,250)" stroke="rgb(251,251,250)" stroke-width="1" opacity="1" d="M 62.5 33 L 61.5 35 L 62.5 33 Z "></path><path fill="rgb(251,251,250)" stroke="rgb(251,251,250)" stroke-width="1" opacity="1" d="M 57.5 34 L 57 35.5 L 55.5 39 L 54 38.5 L 56 38 L 57.5 34 Z "></path><path fill="rgb(251,251,250)" stroke="rgb(251,251,250)" stroke-width="1" opacity="1" d="M 40.5 35 L 41.5 37 L 40.5 35 Z "></path><path fill="rgb(251,251,250)" stroke="rgb(251,251,250)" stroke-width="1" opacity="1" d="M 62 36 L 64 36.5 L 63 39 L 61 38.5 L 62 36 Z "></path><path fill="rgb(251,251,250)" stroke="rgb(251,251,250)" stroke-width="1" opacity="1" d="M 96.5 36 L 97.5 38 L 96.5 36 Z "></path><path fill="rgb(251,251,250)" stroke="rgb(251,251,250)" stroke-width="1" opacity="1" d="M 101.5 36 L 104 39.5 L 101 39.5 L 102 37.5 L 101.5 36 Z "></path><path fill="rgb(251,251,250)" stroke="rgb(251,251,250)" stroke-width="1" opacity="1" d="M 43.5 37 L 45.5 40 L 43.5 39 L 43.5 41 Q 40.8 39.8 43 38.5 L 43.5 37 Z "></path><path fill="rgb(251,251,250)" stroke="rgb(251,251,250)" stroke-width="1" opacity="1" d="M 40.5 40 L 42.5 43 L 40.5 44 L 40 42.5 L 40.5 40 Z "></path><path fill="rgb(251,251,250)" stroke="rgb(251,251,250)" stroke-width="1" opacity="1" d="M 76.5 40 L 81 40.5 L 76.5 41 L 76.5 40 Z "></path><path fill="rgb(251,251,250)" stroke="rgb(251,251,250)" stroke-width="1" opacity="1" d="M 114.5 40 L 116 43 L 114 42.5 L 114.5 40 Z "></path><path fill="rgb(251,251,250)" stroke="rgb(251,251,250)" stroke-width="1" opacity="1" d="M 117.5 40 L 120 45.5 L 118.5 48 L 118 46.5 L 119 43.5 L 118 43.5 L 117.5 45 L 117 42.5 L 117.5 40 Z "></path><path fill="rgb(251,251,250)" stroke="rgb(251,251,250)" stroke-width="1" opacity="1" d="M 54.5 41 Q 56.8 40.3 56 42.5 L 54.5 41 Z "></path><path fill="rgb(251,251,250)" stroke="rgb(251,251,250)" stroke-width="1" opacity="1" d="M 67.5 41 L 85 42.5 L 72.5 43 L 66.5 48 L 68 45.5 Q 67.3 43.3 69.5 44 L 72 42.5 L 67.5 42 L 65 43.5 L 67.5 41 Z "></path><path fill="rgb(251,251,250)" stroke="rgb(251,251,250)" stroke-width="1" opacity="1" d="M 104 41 L 106 41.5 L 105 43.5 L 107 43.5 L 107 47.5 L 108 51.5 L 106 50.5 L 105 46.5 Q 107.5 45 104 43.5 L 104 41 Z "></path><path fill="rgb(251,251,250)" stroke="rgb(251,251,250)" stroke-width="1" opacity="1" d="M 51.5 44 L 51 45.5 Q 51.7 48.1 49 47 Q 47.9 44.3 50.5 45 L 51.5 44 Z "></path><path fill="rgb(251,251,250)" stroke="rgb(251,251,250)" stroke-width="1" opacity="1" d="M 53.5 45 L 53 46.5 L 52.5 48 L 52 46.5 L 53.5 45 Z "></path><path fill="rgb(251,251,250)" stroke="rgb(251,251,250)" stroke-width="1" opacity="1" d="M 89.5 45 L 92 48.5 L 90 47.5 L 89.5 45 Z "></path><path fill="rgb(251,251,250)" stroke="rgb(251,251,250)" stroke-width="1" opacity="1" d="M 55.5 46 L 54.5 48 L 55.5 46 Z "></path><path fill="rgb(251,251,250)" stroke="rgb(251,251,250)" stroke-width="1" opacity="1" d="M 109.5 47 L 109 48.5 L 111.5 52 L 109 50.5 L 108 48.5 L 109.5 47 Z "></path><path fill="rgb(251,251,250)" stroke="rgb(251,251,250)" stroke-width="1" opacity="1" d="M 32.5 48 L 35 48.5 L 34.5 51 L 32 50.5 L 32.5 48 Z "></path><path fill="rgb(251,251,250)" stroke="rgb(251,251,250)" stroke-width="1" opacity="1" d="M 37.5 48 L 39.5 49 L 41 48.5 L 38.5 50 L 37.5 48 Z "></path><path fill="rgb(251,251,250)" stroke="rgb(251,251,250)" stroke-width="1" opacity="1" d="M 93.5 48 L 94 53.5 L 93 53.5 L 92 51.5 L 93.5 48 Z "></path><path fill="rgb(251,251,250)" stroke="rgb(251,251,250)" stroke-width="1" opacity="1" d="M 124.5 48 L 126 50.5 L 123 50.5 L 124.5 48 Z "></path><path fill="rgb(251,251,250)" stroke="rgb(251,251,250)" stroke-width="1" opacity="1" d="M 126.5 48 L 127.5 50 L 126.5 48 Z "></path><path fill="rgb(251,251,250)" stroke="rgb(251,251,250)" stroke-width="1" opacity="1" d="M 64 50 L 66 50.5 L 64.5 55 L 64 50 Z "></path><path fill="rgb(251,251,250)" stroke="rgb(251,251,250)" stroke-width="1" opacity="1" d="M 104.5 50 L 106 53.5 L 105 53.5 L 104.5 50 Z "></path><path fill="rgb(251,251,250)" stroke="rgb(251,251,250)" stroke-width="1" opacity="1" d="M 46.5 51 L 47.5 53 L 46.5 51 Z "></path><path fill="rgb(251,251,250)" stroke="rgb(251,251,250)" stroke-width="1" opacity="1" d="M 127.5 51 L 125.5 54 L 125 52 L 127.5 51 Z "></path><path fill="rgb(251,251,250)" stroke="rgb(251,251,250)" stroke-width="1" opacity="1" d="M 32.5 52 L 33.5 54 L 35 53.5 L 32.5 57 L 31 56.5 Q 34.5 55 32 53.5 L 32.5 52 Z "></path><path fill="rgb(251,251,250)" stroke="rgb(251,251,250)" stroke-width="1" opacity="1" d="M 108.5 53 Q 112.9 51.5 112 54.5 L 108.5 57 L 109.5 55 L 111 54.5 Q 107.7 54.6 108.5 53 Z "></path><path fill="rgb(251,251,250)" stroke="rgb(251,251,250)" stroke-width="1" opacity="1" d="M 45.5 54 Q 48.5 57 54.5 57 L 56 56.5 Q 53.7 57.8 56.5 59 L 58 59.5 L 56.5 60 L 46.5 56 L 45.5 54 Z "></path><path fill="rgb(251,251,250)" stroke="rgb(251,251,250)" stroke-width="1" opacity="1" d="M 124.5 55 L 126.5 56 Q 127.7 53.7 129 56.5 L 126.5 58 L 126 56 L 124.5 55 Z "></path><path fill="rgb(251,251,250)" stroke="rgb(251,251,250)" stroke-width="1" opacity="1" d="M 28.5 56 L 27.5 58 L 28.5 56 Z "></path><path fill="rgb(251,251,250)" stroke="rgb(251,251,250)" stroke-width="1" opacity="1" d="M 94.5 56 L 96.5 59 L 94.5 56 Z "></path><path fill="rgb(251,251,250)" stroke="rgb(251,251,250)" stroke-width="1" opacity="1" d="M 131.5 56 L 132.5 58 L 131.5 56 Z "></path><path fill="rgb(251,251,250)" stroke="rgb(251,251,250)" stroke-width="1" opacity="1" d="M 58.5 57 L 61 57.5 L 58.5 58 L 58.5 57 Z "></path><path fill="rgb(251,251,250)" stroke="rgb(251,251,250)" stroke-width="1" opacity="1" d="M 103.5 57 L 104 59 L 95.5 62 L 94 59.5 L 95 59.5 Q 94.3 61.8 96.5 61 L 103.5 57 Z "></path><path fill="rgb(251,251,250)" stroke="rgb(251,251,250)" stroke-width="1" opacity="1" d="M 134.5 57 L 135 58.5 L 135 60.5 L 136 63.5 L 133 65.5 L 133.5 67 L 128.5 60 L 127 59.5 L 128.5 59 L 130.5 60 L 134 58.5 L 134.5 57 Z M 132 60 L 131 63 L 133 63 L 132 60 Z M 135 62 L 133 64 L 135 64 L 135 62 Z "></path><path fill="rgb(251,251,250)" stroke="rgb(251,251,250)" stroke-width="1" opacity="1" d="M 38.5 58 L 39 60 L 46.5 59 L 51 61.5 L 48 62.5 L 50 63.5 L 47 64 L 46.5 62 L 45.5 64 L 44.5 60 L 44 62 L 38.5 60 L 37 63.5 L 37 67.5 L 35.5 71 L 34.5 69 Q 36.8 69.8 36 67.5 L 35 64.5 L 38.5 58 Z "></path><path fill="rgb(251,251,250)" stroke="rgb(251,251,250)" stroke-width="1" opacity="1" d="M 113.5 59 L 116.5 60 L 119 59 Q 117.9 61.7 120.5 61 L 120.5 62 L 119 62.5 L 119.5 64 L 114 61.5 L 113.5 59 Z M 116 61 L 116 62 L 118 62 L 116 61 Z "></path><path fill="rgb(251,251,250)" stroke="rgb(251,251,250)" stroke-width="1" opacity="1" d="M 26.5 60 L 28.5 61 L 30 60.5 L 27.5 62 L 26.5 60 Z "></path><path fill="rgb(251,251,250)" stroke="rgb(251,251,250)" stroke-width="1" opacity="1" d="M 59.5 60 L 64 61.5 L 62.5 62 L 59.5 61 L 59.5 60 Z "></path><path fill="rgb(251,251,250)" stroke="rgb(251,251,250)" stroke-width="1" opacity="1" d="M 109.5 60 L 111 60.5 L 110.5 62 L 112.5 61 L 111.5 63 L 108.5 64 L 108.5 63 L 110 62.5 L 107 61.5 L 109.5 60 Z "></path><path fill="rgb(251,251,250)" stroke="rgb(251,251,250)" stroke-width="1" opacity="1" d="M 24.5 62 L 27 63.5 L 23 68.5 L 23.5 70 Q 22.3 67.8 21 70.5 L 21.5 72 L 23 71.5 L 21.5 75 L 20.5 72 L 18.5 73 L 16 69.5 L 17 69.5 Q 16.3 71.8 18.5 71 L 20 71.5 L 19 68.5 L 20 68.5 L 20.5 70 L 23 66.5 L 22 64.5 L 23 64.5 Q 22.3 66.8 24.5 66 L 24.5 62 Z "></path><path fill="rgb(251,251,250)" stroke="rgb(251,251,250)" stroke-width="1" opacity="1" d="M 102.5 63 L 101.5 65 L 99 64.5 L 102.5 63 Z "></path><path fill="rgb(251,251,250)" stroke="rgb(251,251,250)" stroke-width="1" opacity="1" d="M 121.5 63 L 124 67.5 L 121.5 71 L 122 69.5 L 121.5 66 L 120.5 68 L 120 66.5 L 121.5 63 Z "></path><path fill="rgb(251,251,250)" stroke="rgb(251,251,250)" stroke-width="1" opacity="1" d="M 16.5 64 L 18 67.5 L 17 67.5 L 16.5 64 Z "></path><path fill="rgb(251,251,250)" stroke="rgb(251,251,250)" stroke-width="1" opacity="1" d="M 58.5 64 L 61 65.5 L 60.5 67 L 62.5 66 L 61.5 68 L 58 65.5 L 58.5 64 Z "></path><path fill="rgb(251,251,250)" stroke="rgb(251,251,250)" stroke-width="1" opacity="1" d="M 38.5 66 L 40 70.5 L 37.5 72 L 38 70.5 L 38.5 66 Z "></path><path fill="rgb(251,251,250)" stroke="rgb(251,251,250)" stroke-width="1" opacity="1" d="M 95.5 66 L 98 67.5 L 94.5 70 L 94 68 L 96 67.5 L 95.5 66 Z "></path><path fill="rgb(251,251,250)" stroke="rgb(251,251,250)" stroke-width="1" opacity="1" d="M 135.5 67 L 135.5 70 Q 132.5 68.5 135.5 67 Z "></path><path fill="rgb(251,251,250)" stroke="rgb(251,251,250)" stroke-width="1" opacity="1" d="M 63.5 68 Q 65.8 67.3 65 69.5 L 65.5 71 Q 63.3 71.8 64 69.5 L 63.5 68 Z "></path><path fill="rgb(251,251,250)" stroke="rgb(251,251,250)" stroke-width="1" opacity="1" d="M 125.5 68 L 126.5 70 L 123.5 72 L 125 69.5 L 125.5 68 Z "></path><path fill="rgb(251,251,250)" stroke="rgb(251,251,250)" stroke-width="1" opacity="1" d="M 31.5 69 L 32.5 71 L 30.5 72 L 31 70.5 L 31.5 69 Z "></path><path fill="rgb(251,251,250)" stroke="rgb(251,251,250)" stroke-width="1" opacity="1" d="M 58.5 69 L 61 69.5 L 58 70.5 L 58.5 72 L 56 70.5 L 58.5 69 Z "></path><path fill="rgb(251,251,250)" stroke="rgb(251,251,250)" stroke-width="1" opacity="1" d="M 92.5 70 L 93 71.5 Q 90.7 72.8 92 77.5 L 94.5 81 Q 92.3 80.3 93 82.5 L 94 84.5 L 93 84.5 L 93 83 L 91 83 Q 92.1 80.3 89.5 81 L 89.5 80 Q 92.8 81.1 92 78.5 L 90 78.5 L 91 73.5 L 90.5 72 Q 93 72.7 92.5 70 Z "></path><path fill="rgb(251,251,250)" stroke="rgb(251,251,250)" stroke-width="1" opacity="1" d="M 96.5 70 L 98 70.5 L 96 71 L 95.5 73 L 95 71.5 L 96.5 70 Z "></path><path fill="rgb(251,251,250)" stroke="rgb(251,251,250)" stroke-width="1" opacity="1" d="M 67.5 72 L 68 74.5 L 67 74.5 L 67.5 72 Z "></path><path fill="rgb(251,251,250)" stroke="rgb(251,251,250)" stroke-width="1" opacity="1" d="M 30.5 73 Q 33.5 74.5 30.5 76 L 28.5 77 L 29.5 75 L 31 74.5 L 30.5 73 Z "></path><path fill="rgb(251,251,250)" stroke="rgb(251,251,250)" stroke-width="1" opacity="1" d="M 131.5 73 L 132 75.5 L 130.5 78 L 129 78.5 L 131.5 79 L 133 78.5 Q 133.9 81.5 129.5 80 Q 126.8 78.8 129 77.5 Q 128.5 73.5 131.5 73 Z "></path><path fill="rgb(251,251,250)" stroke="rgb(251,251,250)" stroke-width="1" opacity="1" d="M 94.5 74 L 95 77.5 L 94 77.5 L 94.5 74 Z "></path><path fill="rgb(251,251,250)" stroke="rgb(251,251,250)" stroke-width="1" opacity="1" d="M 135.5 74 L 136 77.5 L 134 78.5 L 135.5 74 Z "></path><path fill="rgb(251,251,250)" stroke="rgb(251,251,250)" stroke-width="1" opacity="1" d="M 23.5 75 Q 26.5 76.5 23.5 78 L 21 77.5 L 24 76.5 L 23.5 75 Z "></path><path fill="rgb(251,251,250)" stroke="rgb(251,251,250)" stroke-width="1" opacity="1" d="M 30.5 77 L 28.5 80 L 25.5 79 L 24 79.5 L 27.5 78 Q 29 80.5 30.5 77 Z "></path><path fill="rgb(251,251,250)" stroke="rgb(251,251,250)" stroke-width="1" opacity="1" d="M 65.5 79 L 68 80.5 L 67 84.5 L 68 87.5 L 67 87.5 L 65.5 80 L 64 80.5 L 65.5 79 Z "></path><path fill="rgb(251,251,250)" stroke="rgb(251,251,250)" stroke-width="1" opacity="1" d="M 91.5 84 L 93 86.5 L 91 85.5 L 91.5 84 Z "></path><path fill="rgb(251,251,250)" stroke="rgb(251,251,250)" stroke-width="1" opacity="1" d="M 95.5 85 L 96 86.5 Q 93.5 88 97 89.5 L 95.5 92 L 95 90.5 L 95 86.5 L 95.5 85 Z "></path><path fill="rgb(251,251,250)" stroke="rgb(251,251,250)" stroke-width="1" opacity="1" d="M 26.5 88 L 30.5 89 L 32 88.5 L 31 89.5 L 32.5 92 L 26.5 89 L 26.5 88 Z "></path><path fill="rgb(251,251,250)" stroke="rgb(251,251,250)" stroke-width="1" opacity="1" d="M 34.5 88 L 35.5 91 L 37 90.5 Q 34.8 89.3 37.5 88 L 38 90.5 L 36.5 92 L 33 89.5 L 34.5 88 Z "></path><path fill="rgb(251,251,250)" stroke="rgb(251,251,250)" stroke-width="1" opacity="1" d="M 61.5 88 L 64 89.5 L 62 90.5 L 62.5 89 L 61.5 88 Z "></path><path fill="rgb(251,251,250)" stroke="rgb(251,251,250)" stroke-width="1" opacity="1" d="M 98.5 88 L 100 90.5 L 98 91.5 L 99 89.5 L 98.5 88 Z "></path><path fill="rgb(251,251,250)" stroke="rgb(251,251,250)" stroke-width="1" opacity="1" d="M 101.5 88 L 104 89.5 L 103 93 L 101 93 Q 102.1 95.7 99.5 95 L 99.5 97 Q 96.8 95.8 99 94.5 Q 98.3 91.9 101 93 L 101 91 L 103 91 L 103 89 L 101.5 88 Z "></path><path fill="rgb(251,251,250)" stroke="rgb(251,251,250)" stroke-width="1" opacity="1" d="M 121.5 88 L 122 90 L 125.5 91 L 127.5 88 L 129 91 L 126 91 Q 127.5 94.7 124.5 94 L 122 95 L 121.5 97 L 120 94.5 L 122.5 94 L 125 92.5 L 123.5 92 L 121 93 L 120 90.5 L 121.5 88 Z "></path><path fill="rgb(251,251,250)" stroke="rgb(251,251,250)" stroke-width="1" opacity="1" d="M 22.5 89 Q 25.5 88.1 24 92.5 L 22.5 92 Q 20.3 92.8 21 90.5 L 22.5 89 Z "></path><path fill="rgb(251,251,250)" stroke="rgb(251,251,250)" stroke-width="1" opacity="1" d="M 61.5 92 L 59.5 95 L 61.5 92 Z "></path><path fill="rgb(251,251,250)" stroke="rgb(251,251,250)" stroke-width="1" opacity="1" d="M 34.5 93 L 36 94.5 L 35.5 97 Q 33 96 34.5 93 Z "></path><path fill="rgb(251,251,250)" stroke="rgb(251,251,250)" stroke-width="1" opacity="1" d="M 135.5 93 L 136 95.5 L 133.5 99 L 135 96.5 L 134.5 95 L 133 95.5 Q 132.3 93.3 134.5 94 L 135.5 93 Z "></path><path fill="rgb(251,251,250)" stroke="rgb(251,251,250)" stroke-width="1" opacity="1" d="M 37.5 94 L 40 97.5 L 40 99.5 L 39.5 101 L 38 98.5 L 39 96.5 L 37.5 94 Z "></path><path fill="rgb(251,251,250)" stroke="rgb(251,251,250)" stroke-width="1" opacity="1" d="M 103.5 94 L 103 95.5 L 105 98.5 L 102 98.5 L 102.5 97 L 101 96.5 L 103.5 94 Z "></path><path fill="rgb(251,251,250)" stroke="rgb(251,251,250)" stroke-width="1" opacity="1" d="M 56.5 95 L 57.5 97 L 56.5 95 Z "></path><path fill="rgb(251,251,250)" stroke="rgb(251,251,250)" stroke-width="1" opacity="1" d="M 52.5 96 L 53 97.5 L 51.5 101 L 51.5 99 L 50 98.5 L 52 98 L 52.5 96 Z "></path><path fill="rgb(251,251,250)" stroke="rgb(251,251,250)" stroke-width="1" opacity="1" d="M 109.5 96 L 112 97.5 L 110.5 97 L 109.5 96 Z "></path><path fill="rgb(251,251,250)" stroke="rgb(251,251,250)" stroke-width="1" opacity="1" d="M 116.5 96 L 116 97.5 L 115.5 99 L 115 97.5 L 116.5 96 Z "></path><path fill="rgb(251,251,250)" stroke="rgb(251,251,250)" stroke-width="1" opacity="1" d="M 119.5 96 L 119 97.5 L 120 99.5 L 118 98.5 L 119.5 96 Z "></path><path fill="rgb(251,251,250)" stroke="rgb(251,251,250)" stroke-width="1" opacity="1" d="M 27.5 97 L 30 100.5 L 27 98.5 L 27.5 97 Z "></path><path fill="rgb(251,251,250)" stroke="rgb(251,251,250)" stroke-width="1" opacity="1" d="M 63.5 97 L 68 102.5 L 67 102.5 L 63.5 98 L 52.5 106 L 52.5 105 L 63.5 97 Z "></path><path fill="rgb(251,251,250)" stroke="rgb(251,251,250)" stroke-width="1" opacity="1" d="M 130.5 97 L 132 101.5 L 131.5 104 L 129 103.5 L 131 100.5 L 128.5 102 L 127 101.5 L 130 99.5 L 130.5 97 Z "></path><path fill="rgb(251,251,250)" stroke="rgb(251,251,250)" stroke-width="1" opacity="1" d="M 94.5 98 L 98 102.5 L 96.5 102 L 92.5 104 L 90.5 103 L 89 103.5 L 92.5 99 L 94.5 102 L 95 100.5 L 94.5 98 Z "></path><path fill="rgb(251,251,250)" stroke="rgb(251,251,250)" stroke-width="1" opacity="1" d="M 25.5 99 L 25.5 102 Q 22.5 100.5 25.5 99 Z "></path><path fill="rgb(251,251,250)" stroke="rgb(251,251,250)" stroke-width="1" opacity="1" d="M 106.5 99 L 111 101 L 111.5 99 L 112 100.5 L 111.5 103 L 109.5 104 L 108.5 101 L 106.5 100 L 105 100.5 L 106.5 99 Z "></path><path fill="rgb(251,251,250)" stroke="rgb(251,251,250)" stroke-width="1" opacity="1" d="M 135.5 99 L 134.5 101 L 133 100.5 L 135.5 99 Z "></path><path fill="rgb(251,251,250)" stroke="rgb(251,251,250)" stroke-width="1" opacity="1" d="M 48.5 100 L 49.5 102 L 48.5 100 Z "></path><path fill="rgb(251,251,250)" stroke="rgb(251,251,250)" stroke-width="1" opacity="1" d="M 63.5 100 L 64.5 102 L 63.5 100 Z "></path><path fill="rgb(251,251,250)" stroke="rgb(251,251,250)" stroke-width="1" opacity="1" d="M 114.5 100 L 115.5 102 L 116.5 100 L 117 101.5 Q 115.5 104.5 114 101.5 L 114.5 100 Z "></path><path fill="rgb(251,251,250)" stroke="rgb(251,251,250)" stroke-width="1" opacity="1" d="M 27.5 101 L 28 102.5 L 25.5 104 L 25.5 103 Q 28 103.7 27.5 101 Z "></path><path fill="rgb(251,251,250)" stroke="rgb(251,251,250)" stroke-width="1" opacity="1" d="M 29 102 L 32 103.5 L 29 103.5 L 29 102 Z "></path><path fill="rgb(251,251,250)" stroke="rgb(251,251,250)" stroke-width="1" opacity="1" d="M 135.5 102 L 134.5 104 L 135.5 102 Z "></path><path fill="rgb(251,251,250)" stroke="rgb(251,251,250)" stroke-width="1" opacity="1" d="M 126.5 103 L 125.5 105 L 126.5 103 Z "></path><path fill="rgb(251,251,250)" stroke="rgb(251,251,250)" stroke-width="1" opacity="1" d="M 101.5 104 Q 105.5 103.5 106 106.5 L 104.5 109 L 104 107.5 L 104.5 106 Q 100.7 106.5 101.5 104 Z "></path><path fill="rgb(251,251,250)" stroke="rgb(251,251,250)" stroke-width="1" opacity="1" d="M 112.5 104 L 116 104.5 L 112.5 105 L 112.5 104 Z "></path><path fill="rgb(251,251,250)" stroke="rgb(251,251,250)" stroke-width="1" opacity="1" d="M 127.5 105 L 126 107.5 L 128 109.5 L 126.5 111 L 125 110.5 L 127 109.5 Q 125 106 123 110.5 L 123.5 112 L 119 111.5 Q 122.1 109.8 120.5 108 L 124.5 106 Q 126 108.5 127.5 105 Z "></path><path fill="rgb(251,251,250)" stroke="rgb(251,251,250)" stroke-width="1" opacity="1" d="M 34.5 106 L 35.5 108 L 33.5 108 L 32 107.5 L 34.5 106 Z "></path><path fill="rgb(251,251,250)" stroke="rgb(251,251,250)" stroke-width="1" opacity="1" d="M 48.5 107 L 47.5 109 L 48.5 107 Z "></path><path fill="rgb(251,251,250)" stroke="rgb(251,251,250)" stroke-width="1" opacity="1" d="M 34.5 109 Q 37.5 110.5 34.5 112 L 32 110.5 L 33.5 111 L 35 110.5 L 34.5 109 Z "></path><path fill="rgb(251,251,250)" stroke="rgb(251,251,250)" stroke-width="1" opacity="1" d="M 109.5 109 L 110 111 L 108 110.5 L 109.5 109 Z "></path><path fill="rgb(251,251,250)" stroke="rgb(251,251,250)" stroke-width="1" opacity="1" d="M 47.5 110 L 48.5 112 L 46 111.5 L 47.5 110 Z "></path><path fill="rgb(251,251,250)" stroke="rgb(251,251,250)" stroke-width="1" opacity="1" d="M 54.5 112 L 55 113.5 Q 52.5 115 56 116.5 L 54.5 119 L 52 117.5 Q 53.1 114.2 50.5 115 L 49.5 113 L 51.5 113 L 53.5 114 L 54.5 112 Z M 54 115 Q 51 119 55 118 L 54 115 Z "></path><path fill="rgb(251,251,250)" stroke="rgb(251,251,250)" stroke-width="1" opacity="1" d="M 106.5 112 L 108 112.5 L 106 113.5 L 106.5 115 L 104 113.5 L 106.5 112 Z "></path><path fill="rgb(251,251,250)" stroke="rgb(251,251,250)" stroke-width="1" opacity="1" d="M 40.5 113 L 42.5 116 L 44 115.5 L 43 117.5 L 45.5 121 L 47 120.5 L 46 123 L 50 123 L 50 124.5 L 46 124.5 Q 45.3 126.8 47.5 126 L 50 126.5 L 48.5 128 L 46 127.5 Q 46.7 124.9 44 126 L 44 124 L 46 123.5 L 42.5 118 L 41 118.5 L 40 115.5 L 40.5 113 Z "></path><path fill="rgb(251,251,250)" stroke="rgb(251,251,250)" stroke-width="1" opacity="1" d="M 115.5 113 L 120 114.5 L 117.5 115 L 115.5 113 Z "></path><path fill="rgb(251,251,250)" stroke="rgb(251,251,250)" stroke-width="1" opacity="1" d="M 103.5 115 L 106 116.5 L 104.5 117 L 103.5 115 Z "></path><path fill="rgb(251,251,250)" stroke="rgb(251,251,250)" stroke-width="1" opacity="1" d="M 96.5 116 L 97 118.5 L 96 118.5 L 96.5 116 Z "></path><path fill="rgb(251,251,250)" stroke="rgb(251,251,250)" stroke-width="1" opacity="1" d="M 114 117 L 116 117.5 L 115.5 119 Q 117.8 119.8 117 117.5 L 118 117.5 L 118.5 119 L 120 118.5 L 116.5 120 L 114.5 119 L 113 119.5 L 114 117 Z "></path><path fill="rgb(251,251,250)" stroke="rgb(251,251,250)" stroke-width="1" opacity="1" d="M 103.5 118 L 102.5 120 L 103.5 118 Z "></path><path fill="rgb(251,251,250)" stroke="rgb(251,251,250)" stroke-width="1" opacity="1" d="M 99.5 119 L 100 120.5 L 99.5 122 L 101.5 121 L 99.5 124 L 99 122 L 96 120.5 L 97.5 121 Q 100 121.7 99.5 119 Z "></path><path fill="rgb(251,251,250)" stroke="rgb(251,251,250)" stroke-width="1" opacity="1" d="M 58.5 120 L 60.5 121 L 62 120.5 L 59 122.5 L 58.5 120 Z "></path><path fill="rgb(251,251,250)" stroke="rgb(251,251,250)" stroke-width="1" opacity="1" d="M 63.5 120 L 64 123 Q 61.3 121.9 62 124.5 L 62 126.5 L 59.5 130 L 60 128.5 Q 58.9 125.2 61.5 126 L 61 124.5 L 63.5 120 Z "></path><path fill="rgb(251,251,250)" stroke="rgb(251,251,250)" stroke-width="1" opacity="1" d="M 40.5 123 L 44 127.5 L 42.5 127 L 40.5 128 L 41 126.5 L 40.5 123 Z "></path><path fill="rgb(251,251,250)" stroke="rgb(251,251,250)" stroke-width="1" opacity="1" d="M 96.5 123 L 98 126.5 L 96 127.5 L 97 124.5 L 96.5 123 Z "></path><path fill="rgb(251,251,250)" stroke="rgb(251,251,250)" stroke-width="1" opacity="1" d="M 110.5 123 L 111.5 125 L 110 124.5 L 109 126.5 L 109.5 128 L 107.5 128 L 105.5 127 L 104 127.5 L 106.5 126 Q 107.8 128.3 109 125.5 L 110.5 123 Z "></path><path fill="rgb(251,251,250)" stroke="rgb(251,251,250)" stroke-width="1" opacity="1" d="M 102.5 129 L 104 132.5 L 103 132.5 Q 103.8 130.3 101.5 131 L 99.5 132 L 99.5 131 L 102.5 129 Z "></path><path fill="rgb(251,251,250)" stroke="rgb(251,251,250)" stroke-width="1" opacity="1" d="M 97.5 133 L 98 135 L 100 135.5 L 98.5 136 L 96 134.5 L 97.5 133 Z "></path><path fill="rgb(251,251,250)" stroke="rgb(251,251,250)" stroke-width="1" opacity="1" d="M 100.5 133 L 103 134.5 L 101.5 135 L 100.5 133 Z "></path><path fill="rgb(254,254,254)" stroke="rgb(254,254,254)" stroke-width="1" opacity="1" d="M 101 24 L 104 24 L 104 31 L 108 31 L 108 32.5 L 109 35 L 107 34.5 L 107.5 33 L 101.5 32 L 100 35 L 102 35.5 L 101.5 38 Q 98.9 38.8 100 35.5 L 99 33.5 Q 102.4 30.7 101 24 Z "></path><path fill="rgb(254,254,254)" stroke="rgb(254,254,254)" stroke-width="1" opacity="1" d="M 60.5 32 L 62.5 35 L 61 34.5 L 60 37.5 L 62 37.5 L 58.5 40 L 58.5 39 L 60 38.5 L 58.5 36 Q 60.8 36.8 60 34.5 L 60.5 32 Z "></path><path fill="rgb(254,254,254)" stroke="rgb(254,254,254)" stroke-width="1" opacity="1" d="M 43 34 L 45 34.5 L 42.5 38 L 42 36.5 L 43 34 Z "></path><path fill="rgb(254,254,254)" stroke="rgb(254,254,254)" stroke-width="1" opacity="1" d="M 96.5 38 L 97.5 40 L 96.5 38 Z "></path><path fill="rgb(254,254,254)" stroke="rgb(254,254,254)" stroke-width="1" opacity="1" d="M 64.5 40 L 68 42.5 L 64 45 L 66 41.5 L 64.5 40 Z "></path><path fill="rgb(254,254,254)" stroke="rgb(254,254,254)" stroke-width="1" opacity="1" d="M 81.5 40 L 86.5 41 L 88.5 41 Q 91.1 40.3 90 43 L 86.5 42 Q 85 44.5 83.5 41 Q 80.5 41.5 81.5 40 Z "></path><path fill="rgb(254,254,254)" stroke="rgb(254,254,254)" stroke-width="1" opacity="1" d="M 92.5 40 L 95 40.5 Q 92.9 43.8 92.5 40 Z "></path><path fill="rgb(254,254,254)" stroke="rgb(254,254,254)" stroke-width="1" opacity="1" d="M 96 42 Q 99 41 98 44 Q 95 45 96 42 Z "></path><path fill="rgb(254,254,254)" stroke="rgb(254,254,254)" stroke-width="1" opacity="1" d="M 92.5 44 L 94.5 47 L 97.5 45 L 98 48 L 95.5 47 L 91.5 48 L 91.5 47 L 93 46.5 L 92.5 44 Z "></path><path fill="rgb(254,254,254)" stroke="rgb(254,254,254)" stroke-width="1" opacity="1" d="M 67.5 45 L 66.5 47 L 65 46.5 L 67.5 45 Z "></path><path fill="rgb(254,254,254)" stroke="rgb(254,254,254)" stroke-width="1" opacity="1" d="M 61 48 L 65 49.5 L 64 54.5 Q 66.5 56 63 57.5 L 64 59.5 L 62 60.5 L 61 57 L 63 56.5 L 61 56 L 61 48 Z "></path><path fill="rgb(254,254,254)" stroke="rgb(254,254,254)" stroke-width="1" opacity="1" d="M 94.5 53 L 95 55.5 L 93 54.5 L 94.5 53 Z "></path><path fill="rgb(254,254,254)" stroke="rgb(254,254,254)" stroke-width="1" opacity="1" d="M 106.5 53 L 108 55.5 L 106 54.5 L 106.5 53 Z "></path><path fill="rgb(254,254,254)" stroke="rgb(254,254,254)" stroke-width="1" opacity="1" d="M 57.5 56 L 59 56.5 L 56 58.5 L 57.5 56 Z "></path><path fill="rgb(254,254,254)" stroke="rgb(254,254,254)" stroke-width="1" opacity="1" d="M 98.5 56 Q 102.3 55.3 103 57.5 L 101.5 58 L 98 57 L 97.5 59 L 95 58.5 L 98.5 56 Z "></path><path fill="rgb(254,254,254)" stroke="rgb(254,254,254)" stroke-width="1" opacity="1" d="M 113.5 61 L 113 62.5 L 112.5 64 L 112 62.5 L 113.5 61 Z "></path><path fill="rgb(254,254,254)" stroke="rgb(254,254,254)" stroke-width="1" opacity="1" d="M 50 62 L 56 63.5 L 50 64 L 50 62 Z "></path><path fill="rgb(254,254,254)" stroke="rgb(254,254,254)" stroke-width="1" opacity="1" d="M 106.5 62 L 107.5 64 L 106.5 62 Z "></path><path fill="rgb(254,254,254)" stroke="rgb(254,254,254)" stroke-width="1" opacity="1" d="M 103.5 63 L 104 66 Q 101 65 102 68 Q 105 67 104 70 L 100 68.5 L 103.5 63 Z "></path><path fill="rgb(254,254,254)" stroke="rgb(254,254,254)" stroke-width="1" opacity="1" d="M 140 64 Q 146 62 144 68 L 140 65.5 L 140 64 Z "></path><path fill="rgb(254,254,254)" stroke="rgb(254,254,254)" stroke-width="1" opacity="1" d="M 57.5 65 L 59.5 68 L 57.5 65 Z "></path><path fill="rgb(254,254,254)" stroke="rgb(254,254,254)" stroke-width="1" opacity="1" d="M 135 65 L 143 71.5 L 136.5 79 L 134 77.5 Q 134.8 75.3 132.5 76 L 130 75.5 L 131 74.5 L 129.5 72 L 135 75 L 135.5 78 L 136 71.5 Q 132.9 69.8 134.5 68 L 133 67.5 L 135 67 L 135 65 Z "></path><path fill="rgb(254,254,254)" stroke="rgb(254,254,254)" stroke-width="1" opacity="1" d="M 33.5 70 L 34.5 72 L 33.5 70 Z "></path><path fill="rgb(254,254,254)" stroke="rgb(254,254,254)" stroke-width="1" opacity="1" d="M 63.5 70 L 65 72.5 L 63 71.5 L 63.5 70 Z "></path><path fill="rgb(254,254,254)" stroke="rgb(254,254,254)" stroke-width="1" opacity="1" d="M 66.5 72 L 68 75.5 L 66.5 80 Q 64.3 79.3 65 75.5 L 66.5 72 Z "></path><path fill="rgb(254,254,254)" stroke="rgb(254,254,254)" stroke-width="1" opacity="1" d="M 92.5 72 Q 95.5 73.5 92.5 75 L 92.5 72 Z "></path><path fill="rgb(254,254,254)" stroke="rgb(254,254,254)" stroke-width="1" opacity="1" d="M 19.5 75 L 21 75.5 L 18.5 77 L 19.5 75 Z "></path><path fill="rgb(254,254,254)" stroke="rgb(254,254,254)" stroke-width="1" opacity="1" d="M 95.5 76 L 96 79 L 94 78.5 L 95.5 76 Z "></path><path fill="rgb(254,254,254)" stroke="rgb(254,254,254)" stroke-width="1" opacity="1" d="M 128.5 76 L 129 78 L 132 78.5 L 128.5 80 L 128 77.5 L 128.5 76 Z "></path><path fill="rgb(254,254,254)" stroke="rgb(254,254,254)" stroke-width="1" opacity="1" d="M 142.5 76 L 144 76.5 L 144 88 L 138 86 Q 138.8 82.6 136 81.5 L 142.5 76 Z "></path><path fill="rgb(254,254,254)" stroke="rgb(254,254,254)" stroke-width="1" opacity="1" d="M 29.5 77 L 32 77.5 L 30.5 80 L 32 80.5 L 32 87.5 L 32 91.5 L 31.5 93 L 30 90.5 L 30.5 89 L 29 88.5 Q 31.8 86.8 30 80.5 L 29.5 77 Z "></path><path fill="rgb(254,254,254)" stroke="rgb(254,254,254)" stroke-width="1" opacity="1" d="M 20 78 Q 23.1 77.3 22.5 80 L 28 80 L 28 88 L 26 88.5 L 28 89.5 L 26.5 90 L 22.5 89 L 21 92 L 25 93 L 27 98.5 L 26 98.5 L 24.5 95 L 20 96 L 19.5 94 L 16 96 L 16 80.5 L 18 80 L 18 91.5 L 20 92 L 20 78 Z "></path><path fill="rgb(254,254,254)" stroke="rgb(254,254,254)" stroke-width="1" opacity="1" d="M 90 83 L 92 83.5 L 90 84.5 L 90 83 Z "></path><path fill="rgb(254,254,254)" stroke="rgb(254,254,254)" stroke-width="1" opacity="1" d="M 129.5 85 Q 133.5 84.5 134 87.5 Q 133.3 89.8 135.5 89 Q 139.5 89.5 139 94.5 L 136.5 96 Q 135 93.5 133.5 97 L 132 95.5 L 135 94.5 L 133 93.5 L 136 91.5 L 132 88.5 Q 132.8 90.8 130.5 90 L 129 90.5 L 129.5 89 Q 126.9 89.8 128 86.5 L 129.5 85 Z "></path><path fill="rgb(254,254,254)" stroke="rgb(254,254,254)" stroke-width="1" opacity="1" d="M 66.5 86 L 67 87.5 L 65 88.5 L 66.5 86 Z "></path><path fill="rgb(254,254,254)" stroke="rgb(254,254,254)" stroke-width="1" opacity="1" d="M 91.5 86 L 90.5 88 L 91.5 86 Z "></path><path fill="rgb(254,254,254)" stroke="rgb(254,254,254)" stroke-width="1" opacity="1" d="M 98.5 90 L 98.5 93 L 96 92.5 L 98.5 90 Z "></path><path fill="rgb(254,254,254)" stroke="rgb(254,254,254)" stroke-width="1" opacity="1" d="M 59.5 91 L 59 92.5 L 58.5 94 L 58 92.5 L 59.5 91 Z "></path><path fill="rgb(254,254,254)" stroke="rgb(254,254,254)" stroke-width="1" opacity="1" d="M 53 96 Q 56.8 94.5 56 97.5 L 53 97.5 L 53 96 Z "></path><path fill="rgb(254,254,254)" stroke="rgb(254,254,254)" stroke-width="1" opacity="1" d="M 114.5 96 L 117 97.5 L 115.5 97 L 114.5 96 Z "></path><path fill="rgb(254,254,254)" stroke="rgb(254,254,254)" stroke-width="1" opacity="1" d="M 107.5 97 L 108.5 99 L 107.5 97 Z "></path><path fill="rgb(254,254,254)" stroke="rgb(254,254,254)" stroke-width="1" opacity="1" d="M 116.5 99 L 118 102.5 L 117 102.5 L 116.5 99 Z "></path><path fill="rgb(254,254,254)" stroke="rgb(254,254,254)" stroke-width="1" opacity="1" d="M 40 101 L 48 101 L 48 104 L 40 104 L 40 101 Z "></path><path fill="rgb(254,254,254)" stroke="rgb(254,254,254)" stroke-width="1" opacity="1" d="M 89.5 102 L 88 104.5 L 88 107 L 80 107 L 80 104 L 87.5 104 L 89.5 102 Z "></path><path fill="rgb(254,254,254)" stroke="rgb(254,254,254)" stroke-width="1" opacity="1" d="M 112.5 102 L 113.5 104 L 111 103.5 L 112.5 102 Z "></path><path fill="rgb(254,254,254)" stroke="rgb(254,254,254)" stroke-width="1" opacity="1" d="M 95.5 103 L 97.5 104 L 99 103.5 L 96.5 107 L 95.5 103 Z "></path><path fill="rgb(254,254,254)" stroke="rgb(254,254,254)" stroke-width="1" opacity="1" d="M 100.5 104 L 101.5 106 L 100.5 104 Z "></path><path fill="rgb(254,254,254)" stroke="rgb(254,254,254)" stroke-width="1" opacity="1" d="M 49.5 107 L 49 108.5 L 49.5 110 L 53.5 108 L 53.5 109 L 50 110 L 49.5 112 L 48 108.5 L 49.5 107 Z "></path><path fill="rgb(254,254,254)" stroke="rgb(254,254,254)" stroke-width="1" opacity="1" d="M 99 108 L 104 109 Q 105.1 111.7 102.5 111 L 99 110 L 99 108 Z "></path><path fill="rgb(254,254,254)" stroke="rgb(254,254,254)" stroke-width="1" opacity="1" d="M 105.5 110 L 109 111.5 L 107.5 111 Q 104.5 111.5 105.5 110 Z "></path><path fill="rgb(254,254,254)" stroke="rgb(254,254,254)" stroke-width="1" opacity="1" d="M 99.5 112 L 99 113.5 Q 98.1 116.5 102.5 115 L 104 114.5 L 98.5 121 L 98 119.5 L 99 115 L 96.5 116 L 99.5 112 Z "></path><path fill="rgb(254,254,254)" stroke="rgb(254,254,254)" stroke-width="1" opacity="1" d="M 108.5 113 L 107.5 115 L 108.5 113 Z "></path><path fill="rgb(254,254,254)" stroke="rgb(254,254,254)" stroke-width="1" opacity="1" d="M 116.5 114 L 115.5 116 L 116.5 114 Z "></path><path fill="rgb(254,254,254)" stroke="rgb(254,254,254)" stroke-width="1" opacity="1" d="M 40 120 Q 43.7 118.5 43 121.5 L 40 121.5 L 40 120 Z "></path><path fill="rgb(254,254,254)" stroke="rgb(254,254,254)" stroke-width="1" opacity="1" d="M 111.5 121 L 112 123.5 L 111 123.5 L 111.5 121 Z "></path><path fill="rgb(254,254,254)" stroke="rgb(254,254,254)" stroke-width="1" opacity="1" d="M 111.5 126 L 110.5 128 L 111.5 126 Z "></path><path fill="rgb(254,254,254)" stroke="rgb(254,254,254)" stroke-width="1" opacity="1" d="M 63.5 127 L 63 128.5 L 62 131.5 L 62.5 133 L 60 132.5 L 63.5 127 Z "></path><path fill="rgb(254,254,254)" stroke="rgb(254,254,254)" stroke-width="1" opacity="1" d="M 98.5 130 L 100 130.5 L 97.5 132 L 98.5 130 Z "></path><path fill="rgb(254,254,254)" stroke="rgb(254,254,254)" stroke-width="1" opacity="1" d="M 57.5 131 L 56.5 133 L 57.5 131 Z "></path><path fill="rgb(254,254,254)" stroke="rgb(254,254,254)" stroke-width="1" opacity="1" d="M 56.5 134 L 58.5 135 L 60 134.5 L 57.5 136 L 56.5 134 Z "></path><path fill="rgb(255,255,255)" stroke="rgb(255,255,255)" stroke-width="1" opacity="1" d="M 0 0 L 160 0 L 160 158 L 0 158 L 0 0 Z M 101 24 L 101 31 L 98 34 L 99 37 Q 98 39 101 38 L 101 40 L 105 41 L 104 44 L 109 47 L 108 49 Q 110 47 112 51 L 110 49 L 107 50 L 107 47 L 106 51 Q 107 53 109 51 L 114 53 Q 113 55 112 53 L 108 54 L 112 56 L 111 55 L 105 58 Q 103 55 99 56 L 99 57 Q 102 56 101 59 L 97 61 L 93 59 L 94 55 L 94 57 L 95 57 L 94 53 Q 92 46 98 48 L 98 45 L 95 47 L 93 44 L 92 47 L 87 43 L 87 42 L 89 43 Q 91 44 90 41 L 88 40 Q 83 44 73 42 L 67 46 L 65 46 Q 66 41 72 42 L 72 41 Q 65 40 64 44 Q 63 48 66 47 L 66 50 L 65 48 L 61 48 L 61 56 L 64 58 L 64 59 L 63 57 L 59 56 L 56 58 L 56 56 L 54 57 Q 47 57 44 53 L 46 50 Q 48 51 47 49 L 51 47 L 50 45 L 52 45 L 52 43 L 54 43 L 52 42 L 54 41 L 56 43 L 54 40 L 56 39 L 55 38 L 57 38 L 58 35 L 57 32 L 54 32 L 49 37 L 46 36 L 46 38 L 44 42 L 41 40 L 41 42 L 40 44 L 42 43 L 43 44 L 41 45 L 41 47 Q 42 49 40 48 L 37 49 L 35 48 L 33 52 L 35 52 L 34 54 L 36 54 L 36 55 L 34 54 Q 29 56 32 58 Q 31 60 30 58 L 29 61 L 27 60 L 28 63 L 26 63 L 26 61 Q 22 63 26 65 L 25 66 Q 23 62 22 65 Q 19 64 20 67 L 22 66 Q 24 65 23 68 L 23 70 Q 24 72 22 71 L 22 70 L 21 69 L 19 69 L 21 75 L 24 76 L 30 72 L 29 74 L 31 74 L 32 75 L 31 72 L 31 70 L 34 71 L 34 70 Q 31 71 32 69 Q 34 64 36 67 Q 38 66 36 65 L 39 60 L 44 62 L 45 60 L 46 64 L 46 63 L 47 60 L 50 63 L 49 63 L 47 63 L 48 64 L 56 64 L 56 66 L 64 70 L 61 71 L 64 72 L 66 71 L 65 76 L 66 88 L 64 89 L 59 95 Q 60 97 58 96 L 56 96 Q 50 94 51 98 L 51 99 L 54 98 L 55 98 L 53 99 Q 51 102 50 100 L 48 101 L 49 103 L 48 103 L 48 101 L 40 101 L 40 103 L 36 97 L 36 95 Q 35 92 34 94 L 32 91 L 33 89 L 32 88 L 32 80 L 30 81 L 30 88 L 28 88 L 28 80 L 25 79 L 22 80 Q 21 77 25 78 L 25 76 L 20 79 L 20 92 L 18 92 L 18 78 L 19 77 L 17 76 L 17 78 L 16 81 L 16 96 L 20 94 L 20 96 L 26 97 L 24 98 L 30 102 L 29 104 L 31 103 L 33 104 L 36 108 Q 39 107 38 110 L 37 112 L 39 111 L 40 114 L 43 115 L 42 114 L 40 117 L 42 116 L 41 118 L 42 119 L 45 117 L 48 123 L 46 124 Q 47 126 49 124 L 53 127 L 51 128 Q 56 127 58 130 Q 61 131 62 128 Q 63 125 61 126 L 59 127 L 60 125 L 59 125 L 59 124 L 58 122 L 57 122 L 57 121 L 54 120 L 56 119 L 56 116 L 55 118 Q 52 119 53 116 L 52 116 L 53 113 L 51 114 L 49 113 L 49 112 Q 51 113 50 110 L 52 110 L 50 109 L 52 106 Q 54 105 53 108 L 53 109 L 55 108 L 54 105 L 61 104 L 58 103 L 62 100 L 64 101 L 64 100 L 64 98 L 65 101 L 65 102 L 67 101 L 67 103 L 71 104 L 80 104 L 80 107 L 88 107 L 87 104 L 89 104 L 92 103 L 92 101 L 94 102 L 93 101 L 94 98 L 95 101 Q 94 103 97 102 L 97 100 L 101 103 L 100 105 L 107 107 L 109 110 L 108 110 Q 106 108 105 111 L 108 111 L 110 112 L 107 114 L 107 116 L 106 115 Q 103 116 105 118 L 102 118 L 101 122 Q 98 121 99 125 L 96 124 L 98 128 L 97 132 L 100 132 L 102 135 L 104 135 L 103 134 L 100 131 Q 99 128 102 129 L 102 131 Q 104 132 103 128 L 106 127 L 108 128 L 107 127 L 108 124 L 111 122 L 110 124 L 112 125 L 111 121 L 114 116 Q 115 113 117 115 L 120 115 L 117 114 L 119 113 Q 123 111 120 110 L 122 110 Q 126 108 123 107 L 125 107 Q 124 104 127 105 Q 129 104 127 103 L 129 102 L 128 101 L 131 100 Q 129 95 133 96 L 136 97 L 138 96 L 139 93 L 132 85 L 130 85 L 126 91 L 128 91 L 127 93 L 125 90 L 122 91 L 125 93 L 124 93 Q 121 94 123 96 L 122 95 L 119 101 L 117 99 L 116 102 Q 120 103 117 105 L 116 102 L 115 104 L 110 101 L 112 105 L 102 98 L 96 92 L 97 90 L 95 91 L 92 86 Q 92 81 95 81 L 92 79 L 93 81 L 91 80 L 94 74 L 93 70 L 96 69 L 95 68 L 95 67 L 104 70 Q 105 67 102 68 Q 101 65 104 66 L 104 63 L 110 62 L 117 58 L 120 60 L 120 61 L 119 59 L 110 63 L 113 64 L 113 62 L 116 61 L 118 62 L 116 62 L 115 64 L 117 63 L 120 64 L 119 63 L 121 62 L 122 67 Q 123 70 121 69 L 122 71 L 123 68 Q 126 67 125 70 L 129 71 Q 127 73 130 75 Q 127 76 128 80 L 133 80 L 133 78 L 130 77 L 133 76 L 134 79 L 137 79 L 143 73 L 137 65 L 133 67 L 133 63 Q 130 64 131 60 L 130 60 L 130 62 L 128 61 L 129 58 L 127 58 L 129 57 Q 127 53 126 57 L 125 54 L 124 56 L 122 55 L 124 54 L 123 53 L 124 51 Q 123 47 119 48 L 119 46 L 118 49 L 116 45 L 116 43 Q 117 39 115 40 L 115 42 L 112 40 Q 113 37 111 38 L 111 37 L 110 36 L 110 33 L 108 31 L 104 31 L 104 24 L 101 24 Z M 49 33 L 49 35 L 51 34 L 49 33 Z M 62 33 L 58 37 L 59 39 L 59 40 L 61 39 L 63 40 L 63 38 L 64 36 L 61 38 L 60 37 L 63 35 Q 64 32 62 33 Z M 43 34 Q 42 37 45 36 Q 46 33 43 34 Z M 42 36 L 44 39 L 45 39 L 42 36 Z M 75 40 L 75 41 L 84 41 L 75 40 Z M 93 40 Q 93 44 95 41 L 93 40 Z M 119 41 L 117 43 L 118 45 L 119 43 L 119 41 Z M 96 42 Q 95 45 98 44 Q 99 41 96 42 Z M 120 43 L 119 46 L 120 46 L 120 43 Z M 52 45 L 53 48 L 53 46 L 55 46 L 52 45 Z M 105 45 Q 103 48 106 47 L 105 45 Z M 105 48 L 104 52 L 105 52 L 105 48 Z M 96 49 L 95 52 L 96 52 L 96 49 Z M 106 52 L 106 55 Q 105 57 108 56 L 106 52 Z M 125 52 Q 125 56 127 53 L 125 52 Z M 29 56 L 27 59 L 29 58 L 29 56 Z M 95 57 Q 94 60 98 59 Q 99 56 95 57 Z M 130 57 L 131 59 Q 132 56 130 57 Z M 135 57 L 133 60 L 135 59 L 135 57 Z M 39 62 L 40 65 L 41 63 L 39 62 Z M 108 63 L 108 64 L 110 64 L 108 63 Z M 140 64 L 140 66 L 144 68 Q 146 62 140 64 Z M 38 66 L 38 68 L 37 70 L 40 71 L 39 70 L 40 68 L 38 66 Z M 35 69 L 36 71 L 37 71 L 35 69 Z M 59 69 L 59 70 L 61 70 L 59 69 Z M 97 69 L 96 71 L 99 71 L 97 69 Z M 18 71 L 19 73 L 20 73 L 18 71 Z M 95 74 Q 92 80 96 79 L 95 74 Z M 27 76 L 27 77 L 29 77 L 27 76 Z M 143 76 L 136 82 Q 139 83 138 86 L 144 88 L 144 77 L 143 76 Z M 29 77 L 29 79 L 29 80 L 32 78 L 29 77 Z M 26 78 L 26 79 L 28 79 L 26 78 Z M 99 88 Q 100 90 97 92 L 99 93 L 100 91 Q 101 87 99 88 Z M 121 88 L 122 90 L 125 89 L 121 88 Z M 39 89 L 37 91 L 39 91 L 39 89 Z M 60 89 L 59 92 L 60 92 L 60 89 Z M 36 91 L 37 93 Q 38 90 36 91 Z M 101 91 Q 100 94 103 93 Q 104 90 101 91 Z M 122 91 L 122 94 Q 125 93 122 91 Z M 57 92 Q 56 95 59 94 Q 60 91 57 92 Z M 99 93 Q 98 96 101 95 Q 102 92 99 93 Z M 104 94 L 103 95 Q 100 94 101 97 L 104 96 L 104 94 Z M 113 96 L 114 99 L 115 97 L 115 99 L 117 98 L 117 96 L 113 96 Z M 104 97 L 105 99 Q 106 96 104 97 Z M 109 98 L 109 99 L 111 99 L 109 98 Z M 107 99 L 108 101 L 109 101 L 107 99 Z M 132 100 L 129 104 L 132 102 L 132 100 Z M 133 100 Q 132 103 135 102 Q 136 99 133 100 Z M 28 101 L 26 104 L 28 103 L 28 101 Z M 96 104 L 96 107 L 98 106 Q 99 103 96 104 Z M 33 107 L 34 109 Q 35 106 33 107 Z M 99 108 L 99 110 L 103 111 Q 105 112 104 109 L 99 108 Z M 56 109 L 54 111 L 56 111 L 56 109 Z M 54 112 L 55 114 Q 56 111 54 112 Z M 100 112 L 100 113 L 103 113 L 100 112 Z M 99 113 L 97 115 L 99 115 L 99 113 Z M 104 114 L 99 115 Q 100 119 97 122 L 99 122 L 100 119 L 104 116 L 104 114 Z M 97 115 L 96 119 L 97 119 L 97 115 Z M 116 115 L 114 119 L 116 118 L 116 115 Z M 40 120 L 40 122 L 42 122 Q 41 125 44 124 L 43 123 Q 44 118 40 120 Z M 45 120 L 44 122 L 46 123 L 45 120 Z M 62 120 L 59 121 L 60 123 L 62 122 L 62 120 Z M 64 120 L 62 123 L 64 124 L 64 120 Z M 44 124 Q 43 127 46 126 Q 47 123 44 124 Z M 41 125 Q 40 128 43 127 Q 44 124 41 125 Z M 46 126 L 46 128 L 48 127 L 46 126 Z M 62 130 L 60 132 Q 59 134 63 133 L 64 134 Q 65 131 62 132 L 62 130 Z M 56 131 L 56 133 L 58 132 L 56 131 Z M 98 133 L 96 135 L 98 135 L 98 133 Z M 57 134 L 58 136 L 60 135 L 57 134 Z "></path><path fill="rgb(255,255,255)" stroke="rgb(255,255,255)" stroke-width="1" opacity="1" d="M 39.5 58 L 42 59.5 L 40.5 60 L 39.5 58 Z "></path><path fill="rgb(255,255,255)" stroke="rgb(255,255,255)" stroke-width="1" opacity="1" d="M 57.5 58 Q 61.3 57.3 62 59.5 L 58.5 60 L 57.5 58 Z "></path><path fill="rgb(255,255,255)" stroke="rgb(255,255,255)" stroke-width="1" opacity="1" d="M 93.5 60 L 94.5 62 Q 91.7 62.7 93.5 60 Z "></path><path fill="rgb(255,255,255)" stroke="rgb(255,255,255)" stroke-width="1" opacity="1" d="M 99.5 65 Q 102.1 64.3 101 67 L 97 66.5 L 99.5 65 Z "></path><path fill="rgb(255,255,255)" stroke="rgb(255,255,255)" stroke-width="1" opacity="1" d="M 90.5 73 L 91 76.5 L 90 76.5 L 90.5 73 Z "></path><path fill="rgb(255,255,255)" stroke="rgb(255,255,255)" stroke-width="1" opacity="1" d="M 67.5 76 L 68 79.5 L 67 79.5 L 67.5 76 Z "></path><path fill="rgb(255,255,255)" stroke="rgb(255,255,255)" stroke-width="1" opacity="1" d="M 67.5 82 L 68 84.5 L 67 84.5 L 67.5 82 Z "></path><path fill="rgb(255,255,255)" stroke="rgb(255,255,255)" stroke-width="1" opacity="1" d="M 89.5 84 L 92 88.5 L 91 88.5 L 89.5 84 Z "></path><path fill="rgb(255,255,255)" stroke="rgb(255,255,255)" stroke-width="1" opacity="1" d="M 28.5 89 L 29.5 91 Q 26.7 91.7 28.5 89 Z "></path><path fill="rgb(255,255,255)" stroke="rgb(255,255,255)" stroke-width="1" opacity="1" d="M 47.5 109 L 46.5 111 L 47.5 109 Z "></path><path fill="rgb(193,193,193)" stroke="rgb(193,193,193)" stroke-width="1" opacity="1" d="M 53.5 33 L 56 33.5 L 53.5 34 L 53.5 33 Z "></path><path fill="rgb(193,193,193)" stroke="rgb(193,193,193)" stroke-width="1" opacity="1" d="M 51.5 34 L 50.5 36 L 51.5 34 Z "></path><path fill="rgb(193,193,193)" stroke="rgb(193,193,193)" stroke-width="1" opacity="1" d="M 47.5 38 L 44.5 42 L 47.5 38 Z "></path><path fill="rgb(193,193,193)" stroke="rgb(193,193,193)" stroke-width="1" opacity="1" d="M 87 47 L 91 48 Q 93 51 92 58.5 L 96 64.5 L 93 63.5 L 93 68.5 Q 89.2 69.8 90 74 L 88 74.5 L 88 89.5 L 86 100.5 L 84.5 102 L 72.5 102 L 71.5 103 L 72 101.5 L 72.5 99 L 79.5 99 L 79.5 98 L 71 97.5 Q 77.9 98.4 81 95.5 L 80 93.5 L 82.5 95 L 84 93.5 L 83 91.5 L 84.5 91 L 86 91.5 Q 86.7 88.9 84 90 L 84 88 L 86 87.5 L 86 72.5 L 87 71.5 L 87 47 Z M 89 50 L 89 53 L 90 53 Q 91 49 89 50 Z "></path><path fill="rgb(193,193,193)" stroke="rgb(193,193,193)" stroke-width="1" opacity="1" d="M 45.5 56 L 51 58.5 L 49.5 59 L 47.5 58 L 47.5 60 L 44 57.5 L 45.5 56 Z "></path><path fill="rgb(193,193,193)" stroke="rgb(193,193,193)" stroke-width="1" opacity="1" d="M 114.5 56 L 120 57.5 L 114 58 L 114.5 56 Z "></path><path fill="rgb(193,193,193)" stroke="rgb(193,193,193)" stroke-width="1" opacity="1" d="M 61.5 63 Q 65.9 61.5 65 64.5 L 62.5 66 L 62.5 65 L 64 64.5 L 61.5 64 L 60 64.5 L 61.5 63 Z "></path><path fill="rgb(193,193,193)" stroke="rgb(193,193,193)" stroke-width="1" opacity="1" d="M 28.5 71 L 27.5 73 L 28.5 71 Z "></path><path fill="rgb(193,193,193)" stroke="rgb(193,193,193)" stroke-width="1" opacity="1" d="M 22.5 73 L 23.5 75 L 22.5 73 Z "></path><path fill="rgb(193,193,193)" stroke="rgb(193,193,193)" stroke-width="1" opacity="1" d="M 135.5 73 L 134.5 75 L 135.5 73 Z "></path><path fill="rgb(193,193,193)" stroke="rgb(193,193,193)" stroke-width="1" opacity="1" d="M 90.5 88 L 91.5 90 L 90.5 88 Z "></path><path fill="rgb(193,193,193)" stroke="rgb(193,193,193)" stroke-width="1" opacity="1" d="M 96.5 94 L 113 106.5 L 111.5 109 L 108.5 107 L 95 98.5 L 98 96.5 L 96.5 94 Z "></path><path fill="rgb(193,193,193)" stroke="rgb(193,193,193)" stroke-width="1" opacity="1" d="M 92.5 97 L 93 98.5 L 89 101.5 L 92.5 97 Z "></path><path fill="rgb(193,193,193)" stroke="rgb(193,193,193)" stroke-width="1" opacity="1" d="M 74.5 103 L 85 103.5 L 74.5 104 L 74.5 103 Z "></path><path fill="rgb(193,193,193)" stroke="rgb(193,193,193)" stroke-width="1" opacity="1" d="M 44.5 105 L 46.5 105 L 48 105.5 L 47 109 L 45 108.5 L 46 107.5 L 44.5 105 Z "></path><path fill="rgb(193,193,193)" stroke="rgb(193,193,193)" stroke-width="1" opacity="1" d="M 105.5 117 L 104.5 119 L 105.5 117 Z "></path><path fill="rgb(232,232,232)" stroke="rgb(232,232,232)" stroke-width="1" opacity="1" d="M 47.5 37 L 46.5 39 L 47.5 37 Z "></path><path fill="rgb(232,232,232)" stroke="rgb(232,232,232)" stroke-width="1" opacity="1" d="M 53.5 42 L 54.5 44 L 53.5 42 Z "></path><path fill="rgb(232,232,232)" stroke="rgb(232,232,232)" stroke-width="1" opacity="1" d="M 72.5 43 L 77 43.5 L 72.5 44 L 72.5 43 Z "></path><path fill="rgb(232,232,232)" stroke="rgb(232,232,232)" stroke-width="1" opacity="1" d="M 81.5 43 L 86 43.5 L 81.5 44 L 81.5 43 Z "></path><path fill="rgb(232,232,232)" stroke="rgb(232,232,232)" stroke-width="1" opacity="1" d="M 70.5 44 L 70 45.5 L 69 50 L 71 50.5 L 70 55.5 L 71 60.5 L 70 63.5 Q 72.5 65 71 70.5 L 71 72.5 L 71 96.5 L 68 97 L 67 91.5 L 67.5 90 Q 63.8 89.3 63 91.5 L 57.5 98 L 49.5 103 L 50.5 101 L 62 92.5 L 64.5 89 L 68 88 Q 66.7 77.6 69 72 Q 65.3 73.5 66 70.5 L 63 66.5 L 65 66 L 64 57.5 L 66 54.5 L 65 51.5 L 70.5 44 Z M 68 48 L 66 52 L 68 55 L 69 55 L 68 48 Z M 69 56 L 68 59 L 69 59 L 69 56 Z M 68 60 L 67 65 L 68 65 L 68 60 Z M 66 67 L 67 69 Q 68 66 66 67 Z M 70 81 L 69 86 L 70 86 L 70 81 Z "></path><path fill="rgb(232,232,232)" stroke="rgb(232,232,232)" stroke-width="1" opacity="1" d="M 88.5 45 L 89.5 47 L 88.5 45 Z "></path><path fill="rgb(232,232,232)" stroke="rgb(232,232,232)" stroke-width="1" opacity="1" d="M 110.5 48 L 112.5 51 L 110.5 48 Z "></path><path fill="rgb(232,232,232)" stroke="rgb(232,232,232)" stroke-width="1" opacity="1" d="M 92.5 52 L 93 54.5 L 92 54.5 L 92.5 52 Z "></path><path fill="rgb(232,232,232)" stroke="rgb(232,232,232)" stroke-width="1" opacity="1" d="M 122.5 53 L 125 54.5 L 123.5 54 L 122.5 53 Z "></path><path fill="rgb(232,232,232)" stroke="rgb(232,232,232)" stroke-width="1" opacity="1" d="M 113.5 54 L 114 55.5 L 113 58 L 116 58.5 L 98.5 65 L 94 62.5 L 97.5 62 L 106.5 57 L 109.5 57 L 113.5 54 Z M 111 58 L 111 59 L 113 59 L 111 58 Z "></path><path fill="rgb(232,232,232)" stroke="rgb(232,232,232)" stroke-width="1" opacity="1" d="M 129.5 57 L 128.5 59 L 129.5 57 Z "></path><path fill="rgb(232,232,232)" stroke="rgb(232,232,232)" stroke-width="1" opacity="1" d="M 57.5 60 L 62 61.5 L 59.5 62 L 57.5 60 Z "></path><path fill="rgb(232,232,232)" stroke="rgb(232,232,232)" stroke-width="1" opacity="1" d="M 92.5 69 L 91.5 71 L 92.5 69 Z "></path><path fill="rgb(232,232,232)" stroke="rgb(232,232,232)" stroke-width="1" opacity="1" d="M 30.5 72 L 29.5 74 L 30.5 72 Z "></path><path fill="rgb(232,232,232)" stroke="rgb(232,232,232)" stroke-width="1" opacity="1" d="M 129.5 73 L 128.5 75 L 129.5 73 Z "></path><path fill="rgb(232,232,232)" stroke="rgb(232,232,232)" stroke-width="1" opacity="1" d="M 89.5 76 L 90 79.5 L 89 79.5 L 89.5 76 Z "></path><path fill="rgb(232,232,232)" stroke="rgb(232,232,232)" stroke-width="1" opacity="1" d="M 89.5 81 L 90 83.5 L 89 83.5 L 89.5 81 Z "></path><path fill="rgb(232,232,232)" stroke="rgb(232,232,232)" stroke-width="1" opacity="1" d="M 124.5 88 L 125.5 90 L 124.5 88 Z "></path><path fill="rgb(232,232,232)" stroke="rgb(232,232,232)" stroke-width="1" opacity="1" d="M 132.5 89 L 135 90.5 L 134.5 92 L 134 90 L 132.5 89 Z "></path><path fill="rgb(232,232,232)" stroke="rgb(232,232,232)" stroke-width="1" opacity="1" d="M 33.5 92 L 32.5 94 L 33.5 92 Z "></path><path fill="rgb(232,232,232)" stroke="rgb(232,232,232)" stroke-width="1" opacity="1" d="M 36.5 92 L 37.5 94 L 36.5 92 Z "></path><path fill="rgb(232,232,232)" stroke="rgb(232,232,232)" stroke-width="1" opacity="1" d="M 63.5 95 L 70 102.5 L 68 103 L 63.5 97 L 59 100.5 L 63.5 95 Z "></path><path fill="rgb(232,232,232)" stroke="rgb(232,232,232)" stroke-width="1" opacity="1" d="M 68.5 98 L 71 98.5 L 68.5 99 L 68.5 98 Z "></path><path fill="rgb(232,232,232)" stroke="rgb(232,232,232)" stroke-width="1" opacity="1" d="M 57.5 101 L 56.5 103 L 57.5 101 Z "></path><path fill="rgb(232,232,232)" stroke="rgb(232,232,232)" stroke-width="1" opacity="1" d="M 130.5 101 L 129.5 103 L 130.5 101 Z "></path><path fill="rgb(232,232,232)" stroke="rgb(232,232,232)" stroke-width="1" opacity="1" d="M 133.5 101 L 132.5 103 L 133.5 101 Z "></path><path fill="rgb(232,232,232)" stroke="rgb(232,232,232)" stroke-width="1" opacity="1" d="M 126.5 102 L 126.5 105 L 125 104.5 L 124.5 106 L 124 104.5 L 126.5 102 Z "></path><path fill="rgb(232,232,232)" stroke="rgb(232,232,232)" stroke-width="1" opacity="1" d="M 54.5 103 L 53.5 105 L 49.5 107 L 50.5 105 L 54.5 103 Z "></path><path fill="rgb(232,232,232)" stroke="rgb(232,232,232)" stroke-width="1" opacity="1" d="M 106.5 106 L 107.5 108 L 106.5 106 Z "></path><path fill="rgb(232,232,232)" stroke="rgb(232,232,232)" stroke-width="1" opacity="1" d="M 110.5 110 L 111 111.5 L 109 112.5 L 110.5 110 Z "></path><path fill="rgb(232,232,232)" stroke="rgb(232,232,232)" stroke-width="1" opacity="1" d="M 49.5 114 L 51.5 117 L 49.5 114 Z "></path><path fill="rgb(232,232,232)" stroke="rgb(232,232,232)" stroke-width="1" opacity="1" d="M 103.5 119 L 102.5 121 L 103.5 119 Z "></path><path fill="rgb(232,232,232)" stroke="rgb(232,232,232)" stroke-width="1" opacity="1" d="M 47.5 121 L 48.5 123 L 47.5 121 Z "></path><path fill="rgb(232,232,232)" stroke="rgb(232,232,232)" stroke-width="1" opacity="1" d="M 50.5 126 L 51.5 128 L 50.5 126 Z "></path><path fill="rgb(232,232,232)" stroke="rgb(232,232,232)" stroke-width="1" opacity="1" d="M 59.5 128 L 58.5 130 L 59.5 128 Z "></path><path fill="rgb(28,28,27)" stroke="rgb(28,28,27)" stroke-width="1" opacity="1" d="M 102.5 34 L 104.5 34 L 113 41.5 L 114 43.5 L 113 45.5 L 115 45.5 L 116 49.5 Q 114.8 52.3 113.5 50 Q 111.3 50.8 112 48.5 L 105 39.5 L 108 41.5 L 111.5 47 L 113 46.5 L 110 42.5 L 112 42.5 L 109.5 39 Q 108.2 41.3 107 38.5 Q 109.8 36.8 105.5 35 Q 102.9 34.3 104 37 L 106 37.5 L 104.5 38 L 102.5 34 Z "></path><path fill="rgb(28,28,27)" stroke="rgb(28,28,27)" stroke-width="1" opacity="1" d="M 118.5 50 L 123 56.5 Q 121.5 59.5 120 56.5 L 120 54.5 Q 121.1 51.2 118.5 52 Q 117.3 54.3 116 51.5 L 118 51.5 L 118.5 50 Z "></path><path fill="rgb(28,28,27)" stroke="rgb(28,28,27)" stroke-width="1" opacity="1" d="M 37 51 L 39 51.5 L 36 53.5 L 37 51 Z "></path><path fill="rgb(28,28,27)" stroke="rgb(28,28,27)" stroke-width="1" opacity="1" d="M 40.5 51 L 42 54.5 Q 40.8 57.8 37 57 L 36 62.5 L 26.5 73 L 24.5 74 Q 21.7 72.8 24 71.5 L 33.5 57 L 37.5 55 Q 39.3 57.7 41 53.5 L 40.5 51 Z "></path><path fill="rgb(28,28,27)" stroke="rgb(28,28,27)" stroke-width="1" opacity="1" d="M 115.5 53 L 118.5 57 L 115 54.5 L 115.5 53 Z "></path><path fill="rgb(28,28,27)" stroke="rgb(28,28,27)" stroke-width="1" opacity="1" d="M 126.5 60 L 133 68.5 L 131 71.5 L 133.5 70 L 135 71.5 Q 135.8 73.8 133.5 73 L 131.5 73 L 124 65.5 L 128 67.5 L 125 62.5 L 126.5 60 Z "></path><path fill="rgb(28,28,27)" stroke="rgb(28,28,27)" stroke-width="1" opacity="1" d="M 132.5 92 L 131.5 94 L 132.5 92 Z "></path><path fill="rgb(28,28,27)" stroke="rgb(28,28,27)" stroke-width="1" opacity="1" d="M 30.5 94 L 29.5 96 L 30.5 94 Z "></path><path fill="rgb(28,28,27)" stroke="rgb(28,28,27)" stroke-width="1" opacity="1" d="M 130.5 95 L 128.5 98 L 130.5 95 Z "></path><path fill="rgb(28,28,27)" stroke="rgb(28,28,27)" stroke-width="1" opacity="1" d="M 36.5 99 L 38 101.5 L 36 100.5 L 36.5 99 Z "></path><path fill="rgb(28,28,27)" stroke="rgb(28,28,27)" stroke-width="1" opacity="1" d="M 127.5 99 L 125.5 102 L 127.5 99 Z "></path><path fill="rgb(28,28,27)" stroke="rgb(28,28,27)" stroke-width="1" opacity="1" d="M 124.5 103 L 123.5 105 L 124.5 103 Z "></path><path fill="rgb(28,28,27)" stroke="rgb(28,28,27)" stroke-width="1" opacity="1" d="M 34.5 104 L 38 106.5 L 36.5 106 L 34.5 104 Z "></path><path fill="rgb(28,28,27)" stroke="rgb(28,28,27)" stroke-width="1" opacity="1" d="M 40.5 106 L 44 107 L 43.5 110 L 43 108 L 40.5 106 Z "></path><path fill="rgb(28,28,27)" stroke="rgb(28,28,27)" stroke-width="1" opacity="1" d="M 115.5 106 L 114 108.5 L 113.5 110 L 113 108.5 L 115.5 106 Z "></path><path fill="rgb(28,28,27)" stroke="rgb(28,28,27)" stroke-width="1" opacity="1" d="M 117.5 107 L 119 109.5 L 118 112 L 114 113.5 Q 111.6 122.1 104.5 126 L 100.5 128 Q 97.3 126.3 101 124.5 L 111.5 112 L 113.5 111 L 115.5 111 L 118 109.5 L 117.5 107 Z "></path><path fill="rgb(28,28,27)" stroke="rgb(28,28,27)" stroke-width="1" opacity="1" d="M 39.5 109 L 40 111 L 42 111.5 L 40.5 112 L 39.5 109 Z "></path><path fill="rgb(28,28,27)" stroke="rgb(28,28,27)" stroke-width="1" opacity="1" d="M 53.5 120 L 54.5 122 L 53.5 120 Z "></path><path fill="rgb(28,28,27)" stroke="rgb(28,28,27)" stroke-width="1" opacity="1" d="M 56.5 124 L 57.5 126 L 56.5 124 Z "></path><path fill="rgb(61,60,59)" stroke="rgb(61,60,59)" stroke-width="1" opacity="1" d="M 103 33 L 105 33.5 L 104.5 35 L 108.5 38 L 110 37.5 L 109 38.5 L 112 41.5 L 113.5 44 L 115 44.5 Q 111.5 46 114 47.5 L 115.5 50 Q 116.8 47.8 118 50.5 Q 117.3 52.8 119.5 52 L 119.5 50 L 122 50.5 L 122 52.5 L 120 56.5 L 121.5 58 Q 123.2 54.3 125 57.5 Q 124.3 59.8 126.5 59 L 126 60.5 Q 125.3 62.8 127.5 62 L 127.5 63 Q 125.3 62.3 126 64.5 L 128 64.5 L 128 66.5 L 129.5 69 L 130.5 67 L 131 68.5 L 129.5 70 L 124.5 65 Q 122.3 65.8 123 63.5 L 118.5 56 L 116.5 57 L 116.5 56 L 118 55.5 L 114.5 50 L 113 50.5 L 113 48.5 Q 113.8 46.3 111.5 47 L 109.5 44 L 108 44.5 L 108 42.5 L 107.5 41 L 106 41.5 Q 108.3 40.3 105.5 39 L 104 38.5 L 106 37.5 L 104 37 L 103 33 Z M 118 52 L 117 54 L 119 55 L 118 52 Z M 121 52 L 120 55 L 121 55 L 121 52 Z "></path><path fill="rgb(61,60,59)" stroke="rgb(61,60,59)" stroke-width="1" opacity="1" d="M 54.5 35 L 55 36.5 L 46.5 48 L 47 46.5 L 54.5 35 Z "></path><path fill="rgb(61,60,59)" stroke="rgb(61,60,59)" stroke-width="1" opacity="1" d="M 38.5 50 Q 40.8 49.3 40 51.5 Q 36.5 53 39 54.5 L 38.5 56 L 36 55.5 L 37 53.5 L 36.5 52 Q 37.8 54.3 39 51.5 L 38.5 50 Z "></path><path fill="rgb(61,60,59)" stroke="rgb(61,60,59)" stroke-width="1" opacity="1" d="M 41.5 51 L 43 53.5 L 41 52.5 L 41.5 51 Z "></path><path fill="rgb(61,60,59)" stroke="rgb(61,60,59)" stroke-width="1" opacity="1" d="M 41.5 55 L 40.5 57 L 41.5 55 Z "></path><path fill="rgb(61,60,59)" stroke="rgb(61,60,59)" stroke-width="1" opacity="1" d="M 31.5 59 Q 34.5 60.5 31.5 62 Q 28.5 60.5 31.5 59 Z "></path><path fill="rgb(61,60,59)" stroke="rgb(61,60,59)" stroke-width="1" opacity="1" d="M 29.5 62 L 28.5 64 L 29.5 62 Z "></path><path fill="rgb(61,60,59)" stroke="rgb(61,60,59)" stroke-width="1" opacity="1" d="M 25.5 68 L 25.5 71 Q 22.5 69.5 25.5 68 Z "></path><path fill="rgb(61,60,59)" stroke="rgb(61,60,59)" stroke-width="1" opacity="1" d="M 132.5 69 L 134 69.5 L 133.5 74 L 131 70.5 L 132.5 69 Z "></path><path fill="rgb(61,60,59)" stroke="rgb(61,60,59)" stroke-width="1" opacity="1" d="M 23.5 71 Q 26.5 72.5 23.5 74 L 23.5 71 Z "></path><path fill="rgb(61,60,59)" stroke="rgb(61,60,59)" stroke-width="1" opacity="1" d="M 26.5 90 L 27.5 92 L 28.5 91 L 32.5 95 Q 34.8 94.3 34 96.5 L 36.5 101 L 38 100.5 L 37.5 102 Q 39.8 101.3 39 103.5 L 38.5 105 Q 40.8 104.3 40 106.5 L 41.5 109 L 38 107.5 L 37.5 106 L 36 106.5 L 36.5 105 L 31 101.5 L 24 91.5 L 26.5 90 Z "></path><path fill="rgb(61,60,59)" stroke="rgb(61,60,59)" stroke-width="1" opacity="1" d="M 131.5 91 L 134 91.5 L 132 92.5 Q 134.3 93.8 131.5 95 L 129 96.5 Q 131.3 97.7 128.5 99 L 125 101.5 L 125.5 103 L 123 104.5 L 121.5 107 L 119.5 106 L 119.5 108 Q 117.3 107.3 118 109.5 L 118.5 111 L 116.5 111 L 115 111.5 L 115.5 113 L 112 111.5 L 114 108.5 Q 111.8 107.3 114.5 106 L 116.5 106 Q 119.1 106.7 118 104 L 120.5 104 Q 124.8 102.3 122 100.5 Q 122.3 95.8 125.5 94 L 131.5 91 Z M 115 108 Q 114 111 117 110 Q 118 107 115 108 Z "></path><path fill="rgb(61,60,59)" stroke="rgb(61,60,59)" stroke-width="1" opacity="1" d="M 44.5 109 L 46.5 114 L 47.5 113 L 53 118.5 L 54.5 122 Q 57.1 121.2 56 124.5 L 59 126.5 L 56.5 128 L 48 121.5 L 42 110 L 44.5 109 Z "></path><path fill="rgb(61,60,59)" stroke="rgb(61,60,59)" stroke-width="1" opacity="1" d="M 104.5 119 L 103.5 121 L 104.5 119 Z "></path><path fill="rgb(61,60,59)" stroke="rgb(61,60,59)" stroke-width="1" opacity="1" d="M 100.5 124 L 103 124.5 L 101.5 127 L 100.5 124 Z "></path><path fill="rgb(215,215,215)" stroke="rgb(215,215,215)" stroke-width="1" opacity="1" d="M 55.5 32 L 57 34.5 L 56 34.5 L 55.5 32 Z "></path><path fill="rgb(215,215,215)" stroke="rgb(215,215,215)" stroke-width="1" opacity="1" d="M 77.5 43 L 88 44 L 90 47.5 L 88.5 47 L 87 47.5 L 87 71.5 L 86 72.5 L 86 88 Q 83 87 84 90 Q 86.7 88.9 86 91.5 L 84.5 91 L 83 91.5 L 84 93.5 L 82.5 95 L 80 93.5 L 81 95.5 Q 77.9 98.4 71 97.5 L 80 98.5 L 72 99 L 70.5 103 L 63.5 95 L 58.5 101 L 47.5 107 L 47 104.5 L 48.5 103 Q 57.5 99.5 63 92.5 L 64.5 90 L 68 90.5 L 67 92.5 L 68 97 L 71 96.5 L 71 72.5 L 71 70.5 L 70 61.5 L 71 56.5 L 70 51.5 L 70.5 50 Q 67.9 50.8 69 47.5 L 71.5 44 Q 76.3 45.3 77.5 43 Z M 69 98 L 69 99 L 71 99 L 69 98 Z "></path><path fill="rgb(215,215,215)" stroke="rgb(215,215,215)" stroke-width="1" opacity="1" d="M 67.5 48 L 69 54.5 L 68 54.5 L 66 51.5 L 67.5 48 Z "></path><path fill="rgb(215,215,215)" stroke="rgb(215,215,215)" stroke-width="1" opacity="1" d="M 88.5 50 Q 91.1 49.2 90 52.5 L 90.5 54 L 88.5 50 Z "></path><path fill="rgb(215,215,215)" stroke="rgb(215,215,215)" stroke-width="1" opacity="1" d="M 65.5 54 L 67 57.5 L 66 57.5 L 65.5 54 Z "></path><path fill="rgb(215,215,215)" stroke="rgb(215,215,215)" stroke-width="1" opacity="1" d="M 92.5 55 L 93 58.5 L 92 58.5 L 92.5 55 Z "></path><path fill="rgb(215,215,215)" stroke="rgb(215,215,215)" stroke-width="1" opacity="1" d="M 33.5 56 L 32.5 58 L 33.5 56 Z "></path><path fill="rgb(215,215,215)" stroke="rgb(215,215,215)" stroke-width="1" opacity="1" d="M 68.5 56 L 69 58.5 L 68 58.5 L 68.5 56 Z "></path><path fill="rgb(215,215,215)" stroke="rgb(215,215,215)" stroke-width="1" opacity="1" d="M 113.5 56 L 114 57.5 L 110.5 59 L 110.5 58 Q 114 59 113.5 56 Z "></path><path fill="rgb(215,215,215)" stroke="rgb(215,215,215)" stroke-width="1" opacity="1" d="M 124.5 56 L 125.5 58 L 124.5 56 Z "></path><path fill="rgb(215,215,215)" stroke="rgb(215,215,215)" stroke-width="1" opacity="1" d="M 49.5 57 L 49.5 59 L 51.5 58 L 59.5 62 L 65 62.5 Q 60.8 62.3 59.5 65 L 55.5 62 L 53.5 62 Q 48.8 61.8 47 58.5 L 49.5 57 Z "></path><path fill="rgb(215,215,215)" stroke="rgb(215,215,215)" stroke-width="1" opacity="1" d="M 104.5 59 L 106 59.5 L 101.5 62 L 101.5 61 L 104.5 59 Z "></path><path fill="rgb(215,215,215)" stroke="rgb(215,215,215)" stroke-width="1" opacity="1" d="M 67.5 60 L 68 64.5 L 67 64.5 L 67.5 60 Z "></path><path fill="rgb(215,215,215)" stroke="rgb(215,215,215)" stroke-width="1" opacity="1" d="M 95.5 63 L 98 64.5 L 95.5 66 L 95.5 63 Z "></path><path fill="rgb(215,215,215)" stroke="rgb(215,215,215)" stroke-width="1" opacity="1" d="M 65.5 67 Q 67.8 66.3 67 68.5 L 65.5 67 Z "></path><path fill="rgb(215,215,215)" stroke="rgb(215,215,215)" stroke-width="1" opacity="1" d="M 68.5 72 L 69 74.5 L 68 74.5 L 68.5 72 Z "></path><path fill="rgb(215,215,215)" stroke="rgb(215,215,215)" stroke-width="1" opacity="1" d="M 69.5 81 L 70 85.5 L 69 85.5 L 69.5 81 Z "></path><path fill="rgb(215,215,215)" stroke="rgb(215,215,215)" stroke-width="1" opacity="1" d="M 122.5 96 L 121.5 98 L 122.5 96 Z "></path><path fill="rgb(215,215,215)" stroke="rgb(215,215,215)" stroke-width="1" opacity="1" d="M 30.5 101 L 31.5 103 L 30.5 101 Z "></path><path fill="rgb(215,215,215)" stroke="rgb(215,215,215)" stroke-width="1" opacity="1" d="M 107.5 106 L 110 107.5 L 108.5 108 L 107.5 106 Z "></path><path fill="rgb(215,215,215)" stroke="rgb(215,215,215)" stroke-width="1" opacity="1" d="M 110.5 109 Q 112.8 108.3 112 110.5 L 110.5 109 Z "></path><path fill="rgb(215,215,215)" stroke="rgb(215,215,215)" stroke-width="1" opacity="1" d="M 59.5 127 L 58.5 129 L 57 128.5 L 59.5 127 Z "></path><path fill="rgb(128,128,127)" stroke="rgb(128,128,127)" stroke-width="1" opacity="1" d="M 52.5 34 L 56 35.5 L 54 35.5 L 52 39.5 L 52.5 41 Q 51.3 38.8 50 41.5 L 51 43.5 L 47 45.5 L 46 47.5 Q 48.8 49.3 44.5 51 L 42.5 51 L 40 50.5 Q 42.8 41.3 49.5 36 L 52.5 34 Z "></path><path fill="rgb(128,128,127)" stroke="rgb(128,128,127)" stroke-width="1" opacity="1" d="M 106.5 34 L 108.5 37 L 106.5 34 Z "></path><path fill="rgb(128,128,127)" stroke="rgb(128,128,127)" stroke-width="1" opacity="1" d="M 110.5 38 L 111.5 40 L 110.5 38 Z "></path><path fill="rgb(128,128,127)" stroke="rgb(128,128,127)" stroke-width="1" opacity="1" d="M 109.5 46 L 110.5 48 L 109.5 46 Z "></path><path fill="rgb(128,128,127)" stroke="rgb(128,128,127)" stroke-width="1" opacity="1" d="M 36.5 49 Q 39.5 50.5 36.5 52 Q 34.3 52.8 35 50.5 L 36.5 49 Z "></path><path fill="rgb(128,128,127)" stroke="rgb(128,128,127)" stroke-width="1" opacity="1" d="M 121.5 49 L 123 52.5 L 120 50.5 L 121.5 49 Z "></path><path fill="rgb(128,128,127)" stroke="rgb(128,128,127)" stroke-width="1" opacity="1" d="M 114.5 51 L 116 56.5 L 114 55.5 L 114.5 51 Z "></path><path fill="rgb(128,128,127)" stroke="rgb(128,128,127)" stroke-width="1" opacity="1" d="M 39.5 52 Q 42.5 53.5 39.5 55 L 39.5 52 Z "></path><path fill="rgb(128,128,127)" stroke="rgb(128,128,127)" stroke-width="1" opacity="1" d="M 43.5 52 L 45 56.5 L 41 58 L 43.5 52 Z "></path><path fill="rgb(128,128,127)" stroke="rgb(128,128,127)" stroke-width="1" opacity="1" d="M 117.5 53 Q 119.8 52.3 119 54.5 L 117.5 53 Z "></path><path fill="rgb(128,128,127)" stroke="rgb(128,128,127)" stroke-width="1" opacity="1" d="M 122.5 60 L 121.5 62 L 122.5 60 Z "></path><path fill="rgb(128,128,127)" stroke="rgb(128,128,127)" stroke-width="1" opacity="1" d="M 127.5 60 L 128.5 62 L 127.5 60 Z "></path><path fill="rgb(128,128,127)" stroke="rgb(128,128,127)" stroke-width="1" opacity="1" d="M 93.5 63 L 95 65.5 L 93 66.5 L 93.5 63 Z "></path><path fill="rgb(128,128,127)" stroke="rgb(128,128,127)" stroke-width="1" opacity="1" d="M 61.5 64 L 64 64.5 L 61.5 65 L 61.5 64 Z "></path><path fill="rgb(128,128,127)" stroke="rgb(128,128,127)" stroke-width="1" opacity="1" d="M 124.5 66 L 129.5 72 L 124.5 66 Z "></path><path fill="rgb(128,128,127)" stroke="rgb(128,128,127)" stroke-width="1" opacity="1" d="M 32.5 67 L 29.5 71 L 32.5 67 Z "></path><path fill="rgb(128,128,127)" stroke="rgb(128,128,127)" stroke-width="1" opacity="1" d="M 135.5 72 L 134.5 74 L 135.5 72 Z "></path><path fill="rgb(128,128,127)" stroke="rgb(128,128,127)" stroke-width="1" opacity="1" d="M 88.5 74 L 89 86.5 L 91.5 90 L 96 92.5 L 98 96.5 L 95.5 98 L 92 97 L 87.5 103 L 72 102.5 L 84.5 102 L 86 100.5 L 88 89.5 L 88.5 74 Z "></path><path fill="rgb(128,128,127)" stroke="rgb(128,128,127)" stroke-width="1" opacity="1" d="M 131.5 90 L 134 90.5 L 131.5 91 L 131.5 90 Z "></path><path fill="rgb(128,128,127)" stroke="rgb(128,128,127)" stroke-width="1" opacity="1" d="M 127.5 92 L 126.5 94 L 127.5 92 Z "></path><path fill="rgb(128,128,127)" stroke="rgb(128,128,127)" stroke-width="1" opacity="1" d="M 31.5 93 L 32.5 95 L 31.5 93 Z "></path><path fill="rgb(128,128,127)" stroke="rgb(128,128,127)" stroke-width="1" opacity="1" d="M 34.5 96 L 36.5 99 L 34.5 96 Z "></path><path fill="rgb(128,128,127)" stroke="rgb(128,128,127)" stroke-width="1" opacity="1" d="M 122.5 97 L 122 98.5 L 123 101.5 Q 122.5 104.5 118.5 104 L 119 102.5 L 122.5 97 Z "></path><path fill="rgb(128,128,127)" stroke="rgb(128,128,127)" stroke-width="1" opacity="1" d="M 29.5 99 L 30.5 101 L 29.5 99 Z "></path><path fill="rgb(128,128,127)" stroke="rgb(128,128,127)" stroke-width="1" opacity="1" d="M 127.5 100 L 126.5 102 L 127.5 100 Z "></path><path fill="rgb(128,128,127)" stroke="rgb(128,128,127)" stroke-width="1" opacity="1" d="M 33.5 104 L 34.5 106 L 33.5 104 Z "></path><path fill="rgb(128,128,127)" stroke="rgb(128,128,127)" stroke-width="1" opacity="1" d="M 40.5 105 Q 45.3 104.3 46 107.5 L 46 109.5 L 47 113.5 L 45 112.5 Q 45.6 107.4 42.5 106 Q 39.5 106.5 40.5 105 Z "></path><path fill="rgb(128,128,127)" stroke="rgb(128,128,127)" stroke-width="1" opacity="1" d="M 114.5 105 L 118 105.5 L 113.5 107 L 114.5 105 Z "></path><path fill="rgb(128,128,127)" stroke="rgb(128,128,127)" stroke-width="1" opacity="1" d="M 37.5 107 L 39 109.5 L 38 109.5 L 37.5 107 Z "></path><path fill="rgb(128,128,127)" stroke="rgb(128,128,127)" stroke-width="1" opacity="1" d="M 42.5 108 L 43 109.5 Q 41.5 112.5 40 109.5 L 42 109.5 L 42.5 108 Z "></path><path fill="rgb(128,128,127)" stroke="rgb(128,128,127)" stroke-width="1" opacity="1" d="M 112.5 108 L 113 110.5 L 112 110.5 L 112.5 108 Z "></path><path fill="rgb(128,128,127)" stroke="rgb(128,128,127)" stroke-width="1" opacity="1" d="M 115 108 Q 118 107 117 110 Q 114 111 115 108 Z "></path><path fill="rgb(128,128,127)" stroke="rgb(128,128,127)" stroke-width="1" opacity="1" d="M 110.5 112 L 106.5 117 L 110.5 112 Z "></path><path fill="rgb(128,128,127)" stroke="rgb(128,128,127)" stroke-width="1" opacity="1" d="M 46.5 119 L 47.5 121 L 46.5 119 Z "></path><path fill="rgb(128,128,127)" stroke="rgb(128,128,127)" stroke-width="1" opacity="1" d="M 110.5 120 L 106.5 125 L 110.5 120 Z "></path><path fill="rgb(128,128,127)" stroke="rgb(128,128,127)" stroke-width="1" opacity="1" d="M 102.5 121 L 101.5 123 L 102.5 121 Z "></path><path fill="rgb(128,128,127)" stroke="rgb(128,128,127)" stroke-width="1" opacity="1" d="M 56.5 123 L 57.5 125 L 56.5 123 Z "></path><path fill="rgb(128,128,127)" stroke="rgb(128,128,127)" stroke-width="1" opacity="1" d="M 51.5 124 L 52.5 126 L 51.5 124 Z "></path><path fill="rgb(128,128,127)" stroke="rgb(128,128,127)" stroke-width="1" opacity="1" d="M 98.5 127 L 99.5 129 L 98.5 127 Z "></path></svg>